<svg width="19" height="11" viewBox="0 0 19 11" fill="none" xmlns="http://www.w3.org/2000/svg">
<path d="M9.48828 7.7129L16.8383 0.362903C17.0883 0.112903 17.3841 -0.00793011 17.7258 0.000403226C18.0674 0.00873656 18.3633 0.137903 18.6133 0.387903C18.8633 0.637903 18.9883 0.933737 18.9883 1.2754C18.9883 1.61707 18.8633 1.9129 18.6133 2.1629L10.9133 9.8379C10.7133 10.0379 10.4883 10.1879 10.2383 10.2879C9.98828 10.3879 9.73828 10.4379 9.48828 10.4379C9.23828 10.4379 8.98828 10.3879 8.73828 10.2879C8.48828 10.1879 8.26328 10.0379 8.06328 9.8379L0.363281 2.1379C0.113281 1.8879 -0.0075531 1.59624 0.000780106 1.2629C0.00911331 0.92957 0.138281 0.637903 0.388281 0.387903C0.638281 0.137903 0.934114 0.0129032 1.27578 0.0129032C1.61745 0.0129032 1.91328 0.137903 2.16328 0.387903L9.48828 7.7129Z" fill="#54370D"/>
</svg>
