<svg width="43" height="42" viewBox="0 0 43 42" fill="none" xmlns="http://www.w3.org/2000/svg">
<path d="M19.439 1.77151L19.9006 3.94338C20.0314 4.55874 19.936 5.11815 19.6144 5.6216C19.2927 6.12504 18.8288 6.4412 18.2225 6.57006C17.6163 6.69892 17.0639 6.5988 16.5653 6.2697C16.0667 5.94059 15.752 5.46836 15.6212 4.85299L15.1596 2.68112C15.0288 2.06576 15.1242 1.50635 15.4458 1.0029C15.7674 0.499457 16.2314 0.183298 16.8376 0.0544366C17.4439 -0.0744252 17.9963 0.0256996 18.4949 0.354804C18.9935 0.683908 19.3082 1.15614 19.439 1.77151ZM41.173 19.8518L39.0333 20.3066C38.427 20.4355 37.8746 20.3353 37.376 20.0062C36.8774 19.6771 36.5628 19.2049 36.432 18.5895C36.3012 17.9742 36.3966 17.4148 36.7182 16.9113C37.0398 16.4079 37.5038 16.0917 38.11 15.9628L40.2497 15.508C40.8559 15.3792 41.4084 15.4793 41.907 15.8084C42.4055 16.1375 42.7202 16.6097 42.851 17.2251C42.9818 17.8405 42.8864 18.3999 42.5648 18.9033C42.2432 19.4068 41.7792 19.7229 41.173 19.8518ZM4.79813 27.5835L2.65843 28.0383C2.05218 28.1672 1.49977 28.067 1.00117 27.7379C0.502585 27.4088 0.187889 26.9366 0.0570892 26.3212C-0.0737106 25.7059 0.0217037 25.1465 0.343329 24.643C0.664958 24.1396 1.12889 23.8234 1.73514 23.6946L3.87484 23.2398C4.48109 23.1109 5.0335 23.211 5.5321 23.5401C6.03069 23.8692 6.34538 24.3415 6.47618 24.9568C6.60698 25.5722 6.51157 26.1316 6.18994 26.635C5.86831 27.1385 5.40438 27.4546 4.79813 27.5835ZM6.78982 8.54616L8.61076 9.74811C9.08767 10.0629 9.39153 10.528 9.52233 11.1433C9.65313 11.7587 9.5647 12.3072 9.25706 12.7887C8.94942 13.2703 8.49248 13.5755 7.88623 13.7044C7.27998 13.8332 6.7384 13.7403 6.26149 13.4255L4.44054 12.2235C3.96363 11.9087 3.65977 11.4436 3.52898 10.8283C3.39818 10.2129 3.4866 9.66445 3.79424 9.18289C4.10188 8.70133 4.55883 8.39612 5.16508 8.26726C5.77133 8.1384 6.3129 8.23136 6.78982 8.54616ZM33.1125 6.1291L31.9379 7.96778C31.6302 8.44934 31.1733 8.75455 30.567 8.88341C29.9608 9.01227 29.4192 8.9193 28.9423 8.60451C28.4654 8.28971 28.1615 7.82463 28.0307 7.20927C27.8999 6.5939 27.9883 6.04544 28.296 5.56389L29.4706 3.72521C29.7783 3.24365 30.2352 2.93844 30.8414 2.80958C31.4477 2.68072 31.9893 2.77368 32.4662 3.08848C32.9431 3.40328 33.247 3.86836 33.3778 4.48372C33.5086 5.09908 33.4201 5.64754 33.1125 6.1291ZM19.1458 10.9138C22.1058 10.2847 24.8539 10.8072 27.3902 12.4813C29.9265 14.1554 31.5139 16.4947 32.1526 19.4991C32.5219 21.2366 32.4828 22.938 32.0354 24.6032C31.588 26.2684 30.8161 27.766 29.7197 29.0963L31.1047 35.6119C31.3586 36.8064 31.1569 37.9181 30.4997 38.9468C29.8424 39.9756 28.9254 40.6151 27.7486 40.8652L23.4692 41.7748C22.2923 42.025 21.1945 41.8138 20.1756 41.1413C19.1568 40.4688 18.5204 39.5352 18.2665 38.3407L16.8816 31.8251C15.3389 31.0558 14.0246 30.0016 12.9386 28.6623C11.8526 27.3231 11.1249 25.7847 10.7556 24.0472C10.117 21.0428 10.6157 18.2601 12.2518 15.6991C13.8879 13.138 16.1859 11.543 19.1458 10.9138ZM25.8558 31.9606C25.5146 32.1087 25.1695 32.2388 24.8206 32.3508C24.4717 32.4628 24.1189 32.5567 23.7623 32.6325C23.4057 32.7083 23.0452 32.766 22.6809 32.8057C22.3166 32.8453 21.9484 32.8668 21.5764 32.8702L22.5459 37.4311L26.8253 36.5215L25.8558 31.9606ZM20.0691 15.2576C18.286 15.6366 16.9051 16.5922 15.9262 18.1244C14.9473 19.6566 14.6503 21.3277 15.035 23.1376C15.4197 24.9475 16.3708 26.3532 17.8882 27.3549C19.4057 28.3565 21.0559 28.6678 22.839 28.2888C24.6221 27.9098 26.0031 26.9542 26.9819 25.4219C27.9608 23.8897 28.2579 22.2187 27.8732 20.4088C27.4885 18.5989 26.5374 17.1931 25.0199 16.1915C23.5025 15.1899 21.8522 14.8786 20.0691 15.2576Z" fill="#F1C953"/>
</svg>
