<svg width="33" height="24" viewBox="0 0 33 24" fill="none" xmlns="http://www.w3.org/2000/svg">
<path d="M0 7.95209C0 3.85803 3.09372 0.440935 7.18267 0.236139C9.80403 0.104848 12.9947 0 16.5 0C20.0053 0 23.196 0.104848 25.8173 0.236139C29.9063 0.440935 33 3.85803 33 7.95209V16.136C33 20.1927 29.9615 23.5767 25.9097 23.7757C23.3496 23.9014 20.1713 24 16.5 24C12.8287 24 9.65037 23.9014 7.09028 23.7757C3.03847 23.5767 0 20.1927 0 16.136V7.95209Z" fill="#F1C953"/>
<path d="M23 12L12.5 18.0622L12.5 5.93782L23 12Z" fill="#4EA487"/>
</svg>
